#!OML:ASF F:\VICON\USERDATA\INSTALL\Justin_Nancy\Justin_Nancy.ASF
:FULLY-SPECIFIED
:DEGREES
142
root 10.8895 16.6134 11.9657 -25.6535 67.5026 -33.3163
lowerback 17.7199 1.47184 3.69533
upperback 2.67948 3.30158 5.61246
thorax -7.18866 1.66728 3.14934
lowerneck -14.8286 -6.04013 -4.84847
upperneck 11.9659 -8.28426 7.54806
head 6.60181 -3.60079 2.35834
rclavicle 1.38155e-014 7.45443e-014
rhumerus -37.5818 24.3989 -90.756
rradius 121.709
rwrist -17.5882
rhand -15.6532 30.4818
rfingers 7.12502
rthumb 10.5347 0.765827
lclavicle 1.38155e-014 7.45443e-014
lhumerus -57.1944 -13.0783 99.0933
lradius 97.2427
lwrist 27.5934
lhand -18.5559 5.32148
lfingers 7.12502
lthumb 7.73385 35.16
rfemur 7.05269 10.2335 16.0341
rtibia 24.5517
rfoot 0.49304 3.87877
rtoes -25.9044
lfemur -56.734 13.1671 -22.8669
ltibia 75.2246
lfoot -9.85735 3.5252
ltoes -3.07242
143
root 11.3165 16.6873 12.037 -26.505 69.1172 -33.7786
lowerback 17.7025 1.25965 3.00275
upperback 2.8484 2.89914 5.7453
thorax -7.02344 1.49769 3.78296
lowerneck -14.9075 -6.03738 -5.29261
upperneck 11.9612 -8.19093 7.59121
head 6.6276 -3.57202 2.45157
rclavicle -5.20816e-014 3.97569e-014
rhumerus -38.7813 23.8257 -89.6394
rradius 120.606
rwrist -17.6713
rhand -14.7339 30.4144
rfingers 7.12502
rthumb 11.4214 0.745467
lclavicle -5.20816e-014 3.97569e-014
lhumerus -57.666 -14.9212 97.4821
lradius 99.6596
lwrist 30.6985
lhand -18.3713 5.55615
lfingers 7.12502
lthumb 7.91201 35.3881
rfemur 8.20467 11.0583 15.7951
rtibia 25.0277
rfoot 6.23982 3.09713
rtoes -19.3327
lfemur -55.606 12.3917 -23.939
ltibia 71.0201
lfoot -9.30188 3.76103
ltoes 0.464576
144
root 11.7461 16.7608 12.1262 -27.9657 70.239 -35.3435
lowerback 17.203 1.1039 2.43246
upperback 2.81687 2.57897 5.95709
thorax -6.80424 1.36235 4.41978
lowerneck -14.719 -5.95756 -5.28187
upperneck 11.9492 -8.09354 7.61346
head 6.58587 -3.52719 2.47256
rclavicle 2.93207e-014 -6.0033e-014
rhumerus -40.2096 23.0397 -88.8729
rradius 119.203
rwrist -17.5227
rhand -13.0189 29.9929
rfingers 7.12502
rthumb 13.075 0.422734
lclavicle 2.93207e-014 -6.0033e-014
lhumerus -57.5345 -15.4695 97.1204
lradius 100.565
lwrist 30.2326
lhand -18.7218 5.70193
lfingers 7.12502
lthumb 7.57372 35.5463
rfemur 8.44169 12.4704 16.4011
rtibia 26.147
rfoot 11.9253 2.89574
rtoes -16.1003
lfemur -54.728 12.1816 -24.6115
ltibia 66.9068
lfoot -8.42744 4.20778
ltoes -1.80837
145
root 12.1733 16.8349 12.1859 -29.6676 70.4242 -36.6114
lowerback 17.4497 0.921731 2.28138
upperback 2.88888 2.32972 5.99428
thorax -6.85263 1.24704 4.60335
lowerneck -14.4354 -5.61476 -4.63629
upperneck 11.9896 -7.75489 7.50849
head 6.49867 -3.34702 2.37981
rclavicle 2.98177e-014 1.63003e-014
rhumerus -41.7166 22.6744 -88.8999
rradius 117.46
rwrist -17.1163
rhand -12.6924 29.3045
rfingers 7.12502
rthumb 13.3897 -0.245182
lclavicle 2.98177e-014 1.63003e-014
lhumerus -56.583 -14.5163 97.3125
lradius 100.118
lwrist 27.8837
lhand -18.996 5.78207
lfingers 7.12502
lthumb 7.30899 35.6358
rfemur 8.50234 14.3831 17.2684
rtibia 28.0216
rfoot 16.6966 4.13451
rtoes -17.219
lfemur -53.0335 12.5513 -24.7712
ltibia 63.0692
lfoot -7.93339 4.7874
ltoes 0.856975
146
root 12.5984 16.878 12.2444 -31.7032 70.6892 -38.4438
lowerback 17.4184 0.68614 2.46612
upperback 2.96959 2.05972 6.06605
thorax -6.72687 1.11507 4.63797
lowerneck -14.2501 -5.27619 -4.24321
upperneck 11.82 -7.35192 7.40057
head 6.36887 -3.15076 2.33066
rclavicle 3.19049e-014 4.33351e-014
rhumerus -43.0298 22.2363 -88.7171
rradius 115.448
rwrist -16.7437
rhand -12.7953 28.9692
rfingers 7.12502
rthumb 13.2905 -0.587034
lclavicle 3.19049e-014 4.33351e-014
lhumerus -55.1614 -13.389 98.0013
lradius 99.5082
lwrist 26.1494
lhand -19.173 5.49925
lfingers 7.12502
lthumb 7.1382 35.3589
rfemur 7.91621 15.5008 18.1009
rtibia 30.6621
rfoot 19.5315 6.37421
rtoes -20.7532
lfemur -51.6671 13.3583 -25.035
ltibia 59.768
lfoot -7.6604 4.24608
ltoes 2.4541
147
root 13.0177 16.8881 12.2995 -34.1453 71.0785 -40.7491
lowerback 17.3576 0.455081 3.03102
upperback 3.04016 1.87043 6.1668
thorax -6.59195 1.0162 4.46682
lowerneck -14.2485 -5.13685 -4.46342
upperneck 11.7181 -7.13391 7.54809
head 6.33667 -3.0461 2.43686
rclavicle -5.64548e-014 -6.22196e-014
rhumerus -44.0862 21.6258 -87.7938
rradius 113.249
rwrist -16.5146
rhand -12.8993 28.9299
rfingers 7.12502
rthumb 13.1903 -0.632801
lclavicle -5.64548e-014 -6.22196e-014
lhumerus -53.9107 -13.0459 98.5634
lradius 99.4006
lwrist 25.264
lhand -20.6278 4.67237
lfingers 7.12502
lthumb 5.73374 34.5748
rfemur 6.8956 15.6117 18.7864
rtibia 34.043
rfoot 20.2019 8.41162
rtoes -15.3221
lfemur -50.3555 13.8733 -25.2677
ltibia 57.0639
lfoot -7.18649 3.54565
ltoes 2.508
148
root 13.4312 16.8862 12.3538 -37.0352 71.2972 -43.5603
lowerback 17.242 0.126246 3.53574
upperback 3.03564 1.55007 6.37066
thorax -6.50915 0.857231 4.47354
lowerneck -14.0218 -4.89428 -4.62674
upperneck 11.6056 -6.78983 7.67794
head 6.25135 -2.88453 2.54566
rclavicle -3.63776e-014 2.64384e-014
rhumerus -45.1532 21.2814 -87.136
rradius 110.877
rwrist -16.0379
rhand -13.1585 28.731
rfingers 7.12502
rthumb 12.9404 -0.847776
lclavicle -3.63776e-014 2.64384e-014
lhumerus -52.6591 -11.9216 97.233
lradius 99.3192
lwrist 20.8012
lhand -13.6104 2.35454
lfingers 7.12502
lthumb 12.5047 31.9604
rfemur 5.53109 15.377 19.6195
rtibia 38.0612
rfoot 18.9149 8.93357
rtoes -6.24944
lfemur -48.9785 13.7621 -24.9856
ltibia 54.9907
lfoot -6.45871 3.46471
ltoes 2.23803
149
root 13.8435 16.8642 12.4201 -39.076 71.4528 -45.4587
lowerback 17.0663 -0.113766 3.7533
upperback 3.02768 1.26215 6.37356
thorax -6.4019 0.713448 4.4161
lowerneck -13.8365 -4.63191 -4.49569
upperneck 11.63 -6.49177 7.86443
head 6.21139 -2.72233 2.61847
rclavicle 1.09829e-014 -2.92213e-014
rhumerus -46.3292 20.4738 -87.1993
rradius 108.269
rwrist -14.8615
rhand -13.2165 28.547
rfingers 7.12502
rthumb 12.8845 -1.03528
lclavicle 1.09829e-014 -2.92213e-014
lhumerus -51.9744 -12.1248 97.1715
lradius 100.489
lwrist 22.2857
lhand -17.0258 3.80433
lfingers 7.12502
lthumb 9.21043 33.5832
rfemur 3.96051 15.3008 20.2269
rtibia 42.5468
rfoot 16.0158 7.89969
rtoes -2.73079
lfemur -47.6128 14.2388 -24.9902
ltibia 53.5095
lfoot -5.705 3.1337
ltoes 2.80379
150
root 14.2511 16.8237 12.5026 -40.1164 71.8933 -45.78
lowerback 17.4352 -0.240493 3.36967
upperback 3.15826 1.03008 6.19671
thorax -6.45163 0.605544 4.49765
lowerneck -13.7144 -4.42281 -4.52739
upperneck 11.6255 -6.25201 8.20248
head 6.18696 -2.58286 2.75866
rclavicle 2.73329e-015 -7.7526e-015
rhumerus -47.3316 19.5296 -86.9557
rradius 105.562
rwrist -13.9555
rhand -13.1117 28.8459
rfingers 7.12502
rthumb 12.9855 -0.72995
lclavicle 2.73329e-015 -7.7526e-015
lhumerus -51.1689 -12.621 96.7078
lradius 101.655
lwrist 22.6729
lhand -19.0115 4.21779
lfingers 7.12502
lthumb 7.294 34.0721
rfemur 2.81668 15.2331 20.3657
rtibia 47.1074
rfoot 13.0678 5.48063
rtoes -6.74059
lfemur -45.6715 15.609 -25.7382
ltibia 52.4737
lfoot -5.20985 2.19557
ltoes 6.85051
151
root 14.6596 16.796 12.5914 -38.8941 72.2494 -45.0161
lowerback 16.4142 -0.118692 2.17276
upperback 3.02621 0.899876 6.24749
thorax -6.04722 0.558072 5.25588
lowerneck -13.5989 -4.18094 -4.63095
upperneck 11.6251 -5.91278 8.25137
head 6.14897 -2.42254 2.82751
rclavicle 2.83268e-014 -1.23246e-014
rhumerus -48.1503 18.8678 -86.2549
rradius 102.828
rwrist -13.463
rhand -11.8671 28.9157
rfingers 7.12502
rthumb 14.1851 -0.580001
lclavicle 2.83268e-014 -1.23246e-014
lhumerus -50.1652 -12.9453 96.0789
lradius 102.85
lwrist 22.8368
lhand -19.1149 4.59029
lfingers 7.12502
lthumb 7.19426 34.448
rfemur 0.0607532 15.287 20.1265
rtibia 51.6428
rfoot 11.0943 2.60731
rtoes -15.0133
lfemur -44.9272 17.153 -26.887
ltibia 51.9043
lfoot -5.47539 1.77937
ltoes 12.2217
152
root 15.0813 16.7823 12.6738 -37.73 72.594 -43.4363
lowerback 16.172 -0.0343759 0.800119
upperback 3.11091 0.745741 6.22318
thorax -5.82571 0.500779 6.04968
lowerneck -13.3663 -3.86493 -4.39752
upperneck 11.5348 -5.47467 7.87252
head 6.03285 -2.23752 2.71473
rclavicle 1.67973e-014 -4.84041e-014
rhumerus -49.059 18.2668 -85.8649
rradius 100.08
rwrist -12.5917
rhand -11.051 28.9396
rfingers 7.12502
rthumb 14.9713 -0.49928
lclavicle 1.67973e-014 -4.84041e-014
lhumerus -48.83 -12.8593 95.3137
lradius 103.896
lwrist 22.8658
lhand -18.2653 5.01536
lfingers 7.12502
lthumb 8.01426 34.8434
rfemur -1.81483 15.3869 19.8084
rtibia 55.8758
rfoot 9.61846 -0.277816
rtoes -14.8405
lfemur -42.6781 17.8347 -27.6491
ltibia 51.6846
lfoot -7.36365 3.63737
ltoes 11.7826
153
root 15.495 16.7563 12.7282 -37.1761 73.1777 -42.3641
lowerback 16.3313 -0.165363 0.129345
upperback 3.07998 0.426252 5.87654
thorax -5.91301 0.347685 6.13113
lowerneck -13.2667 -3.68666 -4.06825
upperneck 11.7225 -5.28799 7.73326
head 6.05053 -2.14075 2.63634
rclavicle 7.237e-014 -2.45499e-014
rhumerus -50.292 17.541 -85.9478
rradius 97.5159
rwrist -11.5842
rhand -12.2438 28.7601
rfingers 7.12502
rthumb 13.8221 -0.760719
lclavicle 7.237e-014 -2.45499e-014
lhumerus -47.3875 -12.8223 94.2498
lradius 104.91
lwrist 23.2259
lhand -17.3185 5.41286
lfingers 7.12502
lthumb 8.92801 35.204
rfemur -3.77948 14.6666 19.067
rtibia 59.8683
rfoot 8.30913 -2.44319
rtoes -15.1629
lfemur -40.1015 18.1975 -28.4211
ltibia 51.6649
lfoot -9.72431 4.69722
ltoes 12.153
154
root 15.9049 16.7059 12.7606 -37.9688 74.0385 -42.5535
lowerback 16.7895 -0.446045 0.234469
upperback 3.00366 0.0512833 5.42627
thorax -6.20351 0.158448 5.67153
lowerneck -13.7484 -3.89058 -4.28702
upperneck 12.557 -5.62318 8.14747
head 6.43763 -2.24966 2.7678
rclavicle -5.14231e-014 2.38666e-014
rhumerus -51.5227 16.3497 -85.9879
rradius 95.0412
rwrist -10.7189
rhand -14.1582 28.497
rfingers 7.12502
rthumb 11.9765 -1.14032
lclavicle -5.14231e-014 2.38666e-014
lhumerus -46.0593 -13.4627 93.2018
lradius 106.304
lwrist 24.7195
lhand -17.5875 5.83721
lfingers 7.12502
lthumb 8.66847 35.6392
rfemur -5.86839 12.7124 17.9514
rtibia 63.6507
rfoot 7.02482 -2.82593
rtoes -16.385
lfemur -37.467 17.9309 -28.9217
ltibia 51.6034
lfoot -12.4212 5.1334
ltoes 12.4535
155
root 16.3185 16.6441 12.7849 -38.674 75.5234 -42.7736
lowerback 17.0636 -0.742193 -0.0531576
upperback 2.9297 -0.414813 5.06528
thorax -6.38597 -0.067449 5.55642
lowerneck -14.2787 -4.13219 -4.74069
upperneck 13.1861 -5.93428 8.44442
head 6.77362 -2.37066 2.90105
rclavicle 5.73432e-014 -5.0864e-014
rhumerus -52.4616 14.8519 -85.4689
rradius 92.6076
rwrist -10.4951
rhand -15.4475 27.9823
rfingers 7.12502
rthumb 10.7332 -1.72352
lclavicle 5.73432e-014 -5.0864e-014
lhumerus -44.2893 -14.0964 92.525
lradius 107.618
lwrist 26.2598
lhand -18.9133 6.14169
lfingers 7.12502
lthumb 7.38886 35.9927
rfemur -8.13645 10.2466 16.2817
rtibia 67.2629
rfoot 5.51555 -2.72417
rtoes -16.3905
lfemur -34.9844 16.7074 -29.6462
ltibia 51.3355
lfoot -14.6352 6.05406
ltoes 13.3545
